HIERARCHY
ROOT Hips
{
	OFFSET 0.000000 0.000000 0.000000 
	CHANNELS 6 Xposition Yposition Zposition Yrotation Zrotation Xrotation 
	JOINT Lumbar
	{
		OFFSET 0.000000 0.000000 0.000000 
		CHANNELS 3 Zrotation Xrotation Yrotation
		JOINT Neck
		{
			OFFSET 0.000000 0.445665 0.000000 
			CHANNELS 3 Zrotation Xrotation Yrotation
			End Site
			{
				OFFSET 0.000000 0.227535 0.000000 
			}
		}
		JOINT RightShoulder
		{
			OFFSET 0.019635 0.377685 0.194865 
			CHANNELS 3 Zrotation Xrotation Yrotation
			JOINT RightElbow
			{
				OFFSET 0.000000 -0.243375 0.000000 
				CHANNELS 2 Zrotation Yrotation
				JOINT RightWrist
				{
					OFFSET 0.000000 -0.264825 0.000000 
					CHANNELS 2 Zrotation Xrotation
					End Site
					{
						OFFSET 0.006600 -0.176220 0.000990 
					}
				}
			}
		}
		JOINT LeftShoulder
		{
			OFFSET 0.019635 0.377685 -0.194865 
			CHANNELS 3 Zrotation Xrotation Yrotation
			JOINT LeftElbow
			{
				OFFSET 0.000000 -0.243375 0.000000 
				CHANNELS 2 Zrotation Yrotation
				JOINT LeftWrist
				{
					OFFSET 0.000000 -0.264825 0.000000 
					CHANNELS 2 Zrotation Xrotation
					End Site
					{
						OFFSET 0.006600 -0.176220 -0.000990 
					}
				}
			}
		}
	}
	JOINT RightHip
	{
		OFFSET 0.052140 -0.069960 0.075570 
		CHANNELS 3 Zrotation Xrotation Yrotation
		JOINT RightKnee
		{
			OFFSET 0.000000 -0.402270 0.000000 
			CHANNELS 1 Zrotation
			JOINT RightAnkle
			{
				OFFSET 0.000000 -0.404085 0.000000 
				CHANNELS 3 Zrotation Xrotation Yrotation
				End Site
				{
					OFFSET 0.204105 -0.089430 0.008415 
				}
			}
		}
	}
	JOINT LeftHip
	{
		OFFSET 0.052140 -0.069960 -0.075570 
		CHANNELS 3 Zrotation Xrotation Yrotation
		JOINT LeftKnee
		{
			OFFSET 0.000000 -0.402270 0.000000 
			CHANNELS 1 Zrotation
			JOINT LeftAnkle
			{
				OFFSET 0.000000 -0.404085 0.000000 
				CHANNELS 3 Zrotation Xrotation Yrotation
				End Site
				{
					OFFSET 0.204105 -0.089430 -0.008415 
				}
			}
		}
	}
}
MOTION
Frames: 23
Frame Time: 0.02
-0.93995 0.95331 0.27953 198.55476 0 -5.70311 3.99368 8.23727 5.47178 -6.06286 4.18746 1.60091 -0.979 -15.45206 -31.24706 7.86745 75.05249 -6.97984 -0.06897 17.39588 25.31057 -15.92567 25.20851 -114.54429 -25.09358 8.60814 2.79752 1.83726 -2.95136 -14.23698 0.83175 -4.10389 -11.76302 -2.70959 3.30021 -4.25294 -5.08924 8.12104 4.95785 6.6988
-0.9429 0.95348 0.27633 197.69872 0 -5.78025 3.91487 8.57865 5.47988 -6.26573 4.40803 1.74603 -0.58995 -15.99574 -31.18639 7.93964 74.8934 -6.82504 -0.09494 18.17492 26.93137 -14.57191 25.84507 -115.46077 -25.86587 8.67988 2.42254 2.13142 -2.73349 -13.29056 0.57515 -4.01045 -11.3906 -2.88463 3.5237 -3.43761 -5.13093 8.22163 5.09181 6.88623
-0.94605 0.95371 0.27293 196.74938 0 -5.87727 3.84889 8.95805 5.50998 -6.48163 4.56829 1.92772 -0.06958 -16.50157 -29.68958 8.14759 75.12313 -6.61839 -0.22991 19.05428 28.9933 -12.8276 26.62927 -116.29028 -26.68083 8.74081 2.06371 2.47599 -2.53661 -12.56001 0.36829 -3.91343 -10.97889 -3.02379 3.75702 -2.54518 -5.27582 8.32945 5.25911 7.12384
-0.94911 0.9539 0.26961 195.84335 0 -5.96375 3.77668 9.31774 5.5239 -6.68354 4.75543 2.08616 0.39804 -17.01969 -28.82129 8.29945 75.17843 -6.43233 -0.32023 19.89945 30.89914 -11.14254 27.3835 -117.00939 -27.44447 8.7833 1.70276 2.79492 -2.3187 -11.7435 0.14124 -3.81705 -10.58113 -3.18067 3.98518 -1.6882 -5.37258 8.43264 5.40998 7.33692
-0.95216 0.95411 0.26632 194.92279 0 -6.05653 3.70623 9.68918 5.57162 -6.92318 4.94467 2.27729 0.84532 -17.56154 -28.03132 8.431 75.223 -6.25448 -0.39411 20.66997 32.63083 -9.92143 27.98501 -118.35316 -28.31644 8.92257 1.32253 3.12564 -2.14939 -10.89016 -0.09098 -3.71829 -10.17248 -3.33181 4.21613 -0.8169 -5.47653 8.54414 5.56699 7.5569
-0.95528 0.95432 0.26293 194.01812 0 -6.14063 3.63526 10.04363 5.54848 -7.08414 5.11652 2.40564 1.36255 -18.04414 -26.74757 8.63551 75.38237 -6.05024 -0.52618 21.65383 34.81783 -7.68046 28.93505 -118.38505 -29.00575 8.86 0.98513 3.44348 -1.88757 -10.16041 -0.30223 -3.62614 -9.78805 -3.48574 4.44363 0.03475 -5.58918 8.63818 5.71804 7.77395
-0.95856 0.95452 0.25926 193.13585 0 -6.19961 3.55826 10.35384 5.35874 -7.04589 5.2381 2.37124 2.04081 -18.367 -24.43778 9.01203 75.76806 -5.76959 -0.79679 22.90701 38.23555 -2.41528 30.84963 -114.74052 -28.88598 8.22371 0.76321 3.71559 -1.31923 -9.70524 -0.47156 -3.55351 -9.47609 -3.66299 4.65936 0.85305 -5.70123 8.69267 5.85423 7.97821
-0.96189 0.95474 0.2555 192.28267 0 -6.24846 3.48062 10.64328 5.09054 -6.92337 5.3462 2.26848 2.78205 -18.63103 -21.68887 9.45621 76.25543 -5.46792 -1.12113 24.42535 42.07558 3.79523 33.10264 -109.79884 -28.62582 7.38887 0.58321 3.97246 -0.66546 -9.36748 -0.62152 -3.48856 -9.19452 -3.84301 4.87121 1.6397 -5.818 8.72705 5.98141 8.17638
-0.96518 0.95497 0.25178 191.44531 0 -6.29969 3.40408 10.9344 4.83417 -6.82583 5.47277 2.18357 3.49526 -18.9264 -19.15011 9.86643 76.69329 -5.1865 -1.41696 26.01716 45.67422 9.3858 35.17554 -105.49282 -28.63578 6.65656 0.38292 4.23499 -0.07974 -8.98264 -0.77869 -3.42074 -8.90545 -4.01744 5.08485 2.41415 -5.93204 8.76368 6.10643 8.37276
-0.96856 0.95514 0.24804 190.47917 0 -6.36133 3.32424 11.25986 4.67643 -6.78679 5.54946 2.15514 4.21739 -19.20541 -16.50586 10.29472 77.15782 -4.85673 -1.73262 26.79803 49.51677 15.83492 37.36469 -100.96436 -27.81763 5.86927 0.18861 4.50506 0.63037 -8.57854 -0.94093 -3.34994 -8.58762 -4.20917 5.29897 3.30582 -6.05256 8.83012 6.25927 8.59081
-0.97175 0.95542 0.24434 189.79291 0 -6.39822 3.25136 11.50807 4.29784 -6.60348 5.72221 1.99317 4.92577 -19.49954 -14.0087 10.70003 77.58689 -4.62504 -2.01994 29.32401 52.92128 20.66341 39.3901 -96.62306 -28.63845 5.15285 -0.00858 4.75461 1.09971 -8.24031 -1.08842 -3.28741 -8.33784 -4.36565 5.5107 3.94208 -6.15886 8.82905 6.35129 8.76075
-0.9744 0.95601 0.24074 189.84225 0 -6.37271 3.19404 11.5505 3.29837 -6.06103 6.21141 1.47179 5.65167 -19.89819 -11.92123 11.02132 77.88233 -4.65484 -2.2003 36.6427 55.22163 21.24271 40.87869 -92.86349 -34.47448 4.65495 -0.22285 4.95546 0.90347 -8.0472 -1.2025 -3.24469 -8.26727 -4.42737 5.71961 3.90415 -6.22826 8.65085 6.28014 8.8066
-0.97686 0.9567 0.2372 190.17752 0 -6.32192 3.14413 11.51537 2.0851 -5.37261 6.79002 0.81964 6.34773 -20.3064 -10.0224 11.31709 78.13832 -4.78659 -2.35195 45.69323 57.02649 20.08349 42.18929 -89.39186 -41.88578 4.24208 -0.4417 5.13508 0.45904 -7.91653 -1.30219 -3.21028 -8.26462 -4.45323 5.92554 3.6063 -6.28194 8.40459 6.14752 8.80273
-0.9794 0.95734 0.23366 190.40321 0 -6.28035 3.09358 11.51385 0.98918 -4.73895 7.29542 0.23189 7.01014 -20.67724 -8.11424 11.62667 78.41791 -4.88203 -2.52727 53.93451 58.91759 19.40256 43.58328 -85.9452 -48.26937 3.80469 -0.65935 5.32147 0.11418 -7.76163 -1.40703 -3.17285 -8.23208 -4.49335 6.13113 3.41069 -6.34007 8.18651 6.04108 8.81646
-0.98194 0.95798 0.23 190.54735 0 -6.248 3.03257 11.51812 -0.19556 -4.15186 7.9341 -0.37955 7.87375 -21.1807 -5.87237 11.92988 78.67863 -4.9363 -2.66256 62.3097 61.40554 20.02008 44.98319 -81.76564 -55.93915 3.29255 -0.87204 5.51976 -0.17489 -7.59415 -1.517 -3.1325 -8.19669 -4.54153 6.34432 3.27777 -6.41008 7.97912 5.94146 8.8507
-0.98444 0.95866 0.22661 190.92455 0 -6.1906 2.99377 11.49271 -1.24396 -3.43342 8.32131 -0.97137 8.31088 -21.41692 -4.36991 12.23872 78.96628 -5.09843 -2.87012 70.77509 62.53305 17.57204 46.31833 -79.23516 -61.33775 2.96916 -1.09641 5.68809 -0.63644 -7.46532 -1.61318 -3.10012 -8.18266 -4.56512 6.54029 2.95714 -6.45118 7.73384 5.81355 8.83097
-0.98696 0.95941 0.22391 191.91247 0 -6.06975 3.02612 11.40017 -1.87181 -2.3957 7.95142 -1.48067 7.57304 -20.86184 -4.92301 12.57451 79.35073 -5.55442 -3.31475 79.40025 59.97322 6.52564 47.56151 -80.85842 -59.79472 3.05555 -1.35469 5.78159 -1.54613 -7.43431 -1.67449 -3.08747 -8.21363 -4.52343 6.69552 2.14589 -6.41929 7.39815 5.61906 8.67
-0.98944 0.96019 0.22149 193.11773 0 -5.92468 3.07845 11.28161 -2.35273 -1.23044 7.33278 -1.96473 6.40807 -20.04718 -6.20523 12.91532 79.7606 -6.11177 -3.8274 87.99562 56.07116 -7.44683 48.73311 -84.1862 -55.958 3.34403 -1.62421 5.84514 -2.61504 -7.43827 -1.7226 -3.08252 -8.26303 -4.45942 6.83234 1.16179 -6.35826 7.02725 5.39894 8.45727
-0.99193 0.96094 0.21896 194.19936 0 -5.79105 3.11398 11.17743 -2.8956 -0.11815 6.85529 -2.4575 5.44069 -19.38527 -7.11631 13.25035 80.14998 -6.60894 -4.28833 96.38016 52.81258 -19.71754 49.91079 -86.97305 -53.36833 3.60405 -1.88706 5.92079 -3.59025 -7.42141 -1.77702 -3.07422 -8.30227 -4.40962 6.97374 0.28019 -6.30863 6.67417 5.19288 8.27112
-0.99448 0.96175 0.21633 195.39706 0 -5.65474 3.18219 11.05856 -3.46793 0.98079 6.26351 -2.96626 4.45552 -18.57732 -8.20031 13.60017 80.57613 -7.16875 -4.83505 105.7602 49.38622 -33.61689 51.20537 -88.83678 -50.00028 3.61105 -2.15691 6.00241 -4.66466 -7.42754 -1.82949 -3.06573 -8.35185 -4.34124 7.13131 -0.71259 -6.26629 6.31101 4.97441 8.07028
-0.99688 0.96245 0.21399 196.3995 0 -5.51855 3.18718 10.9666 -3.93921 2.13269 5.84798 -3.43435 3.40903 -18.01114 -9.09654 13.91963 80.93183 -7.62146 -5.22094 113.05254 46.0087 -44.79872 52.22767 -92.95628 -47.64961 4.17725 -2.41447 6.06434 -5.56639 -7.39337 -1.88321 -3.05915 -8.38287 -4.30692 7.25049 -1.51024 -6.20198 5.9614 4.77661 7.88841
-0.9989 0.96283 0.21231 196.82044 0 -5.38882 3.01103 10.94247 -4.1838 3.42633 5.99305 -3.79235 2.27419 -18.182 -9.28227 14.16299 81.08984 -7.74757 -5.13413 114.43989 42.9935 -47.72502 52.6406 -103.47084 -49.00397 6.36327 -2.63784 6.08287 -5.95713 -7.23829 -1.9424 -3.05791 -8.3624 -4.37043 7.27136 -1.73645 -6.0849 5.65765 4.64137 7.77144
-1.00077 0.96311 0.21092 197.03424 0 -5.26004 2.77081 10.94875 -4.32788 4.76301 6.32115 -4.11003 1.09667 -18.60395 -9.25582 14.37395 81.17559 -7.76296 -4.88518 113.743 40.09376 -47.8089 52.7628 -116.084 -51.39849 9.08027 -2.84788 6.08202 -6.16666 -7.0415 -2.00349 -3.05799 -8.32165 -4.46936 7.25367 -1.75765 -5.94669 5.36908 4.5282 7.67547
